<?xml version="1.0" standalone="no"?>
<!DOCTYPE svg PUBLIC "-//W3C//DTD SVG 20010904//EN"
 "http://www.w3.org/TR/2001/REC-SVG-20010904/DTD/svg10.dtd">
<svg version="1.0" xmlns="http://www.w3.org/2000/svg"
 width="96.000000pt" height="96.000000pt" viewBox="0 0 96.000000 96.000000"
 preserveAspectRatio="xMidYMid meet">
<metadata>
Created by potrace 1.16, written by Peter Selinger 2001-2019
</metadata>
<g transform="translate(0.000000,96.000000) scale(0.100000,-0.100000)"
fill="#000000" stroke="none">
<path d="M395 908 c-187 -16 -270 -51 -316 -132 -29 -51 -33 -125 -21 -362 11
-221 19 -245 94 -305 55 -43 64 -46 243 -58 172 -11 321 1 380 30 108 54 126
108 133 386 2 130 0 220 -7 255 -26 117 -102 173 -251 183 -47 3 -101 7 -120
9 -19 2 -80 -1 -135 -6z m253 -28 c111 -12 162 -35 199 -92 l28 -41 3 -216 c4
-272 -8 -343 -69 -394 -50 -43 -96 -56 -217 -63 -120 -7 -353 11 -390 30 -41
22 -91 78 -102 115 -5 18 -12 135 -16 261 -7 223 -7 228 16 274 17 35 35 54
73 76 87 50 282 70 475 50z"/>
<path d="M325 820 c-74 -8 -129 -33 -156 -72 -28 -39 -42 -155 -36 -298 7
-148 23 -214 60 -252 60 -60 76 -63 262 -60 204 3 259 12 308 53 54 44 62 83
60 292 -2 248 -24 311 -114 337 -38 11 -290 11 -384 0z m405 -38 c51 -38 62
-79 68 -266 6 -208 -3 -261 -54 -305 -42 -37 -73 -42 -290 -44 l-172 -2 -43
30 c-64 45 -73 80 -73 312 -1 178 0 193 20 220 11 15 36 36 56 46 48 23 187
37 338 31 100 -3 130 -7 150 -22z"/>
<path d="M359 678 c-46 -31 -89 -119 -96 -196 -5 -49 -2 -69 17 -107 41 -85
144 -128 254 -105 110 23 162 108 154 249 -3 64 -7 74 -38 107 -51 53 -102 74
-186 74 -57 0 -78 -4 -105 -22z m209 -22 c15 -8 43 -31 62 -51 33 -35 35 -39
35 -108 -1 -57 -6 -81 -25 -116 -37 -65 -66 -83 -147 -88 -58 -4 -74 -1 -113
19 -62 34 -90 78 -90 142 0 98 38 177 100 209 40 21 131 17 178 -7z"/>
<path d="M435 613 c-53 -13 -105 -103 -91 -158 8 -30 58 -82 94 -96 89 -35
182 33 182 135 0 78 -97 140 -185 119z m88 -32 c44 -17 67 -51 67 -99 0 -91
-91 -132 -172 -77 -42 28 -53 53 -44 100 13 68 79 102 149 76z"/>
</g>
</svg>
