<?xml version="1.0" standalone="no"?>
<!DOCTYPE svg PUBLIC "-//W3C//DTD SVG 20010904//EN"
 "http://www.w3.org/TR/2001/REC-SVG-20010904/DTD/svg10.dtd">
<svg version="1.0" xmlns="http://www.w3.org/2000/svg"
 width="100.000000pt" height="100.000000pt" viewBox="0 0 100.000000 100.000000"
 preserveAspectRatio="xMidYMid meet">
<metadata>
Created by potrace 1.16, written by Peter Selinger 2001-2019
</metadata>
<g transform="translate(0.000000,100.000000) scale(0.100000,-0.100000)"
fill="#000000" stroke="none">
<path d="M435 928 c-11 -6 -35 -24 -53 -40 -30 -25 -40 -28 -107 -28 l-75 0 0
-64 0 -65 -70 -62 -70 -63 0 -273 0 -273 440 0 440 0 0 273 0 273 -70 63 -70
62 0 65 0 64 -75 0 c-67 0 -77 3 -107 29 -18 15 -43 33 -55 40 -28 14 -102 14
-128 -1z m324 -280 l0 -173 -54 -43 -55 -43 -51 36 c-71 49 -127 49 -198 0
l-51 -36 -55 43 -54 43 0 173 -1 172 260 0 260 0 -1 -172z m-458 -293 c0 -3
-45 -42 -101 -86 l-100 -79 0 165 0 166 101 -80 c55 -44 100 -82 100 -86z
m599 0 l0 -165 -100 79 c-56 44 -102 82 -103 85 -2 3 192 163 201 165 1 1 2
-73 2 -164z m-180 -90 c99 -77 179 -146 180 -152 0 -10 -86 -13 -400 -13 -314
0 -400 3 -400 13 1 6 83 76 183 155 168 132 185 142 220 140 31 -3 67 -26 217
-143z"/>
<path d="M300 700 c0 -19 7 -20 200 -20 193 0 200 1 200 20 0 19 -7 20 -200
20 -193 0 -200 -1 -200 -20z"/>
</g>
</svg>
