<?xml version="1.0" standalone="no"?>
<!DOCTYPE svg PUBLIC "-//W3C//DTD SVG 20010904//EN"
 "http://www.w3.org/TR/2001/REC-SVG-20010904/DTD/svg10.dtd">
<svg version="1.0" xmlns="http://www.w3.org/2000/svg"
 width="48.000000pt" height="48.000000pt" viewBox="0 0 48.000000 48.000000"
 preserveAspectRatio="xMidYMid meet">
<metadata>
Created by potrace 1.16, written by Peter Selinger 2001-2019
</metadata>
<g transform="translate(0.000000,48.000000) scale(0.100000,-0.100000)"
fill="#000000" stroke="none">
<path d="M222 417 c-16 -17 -22 -36 -22 -70 0 -46 -1 -47 -30 -47 -28 0 -30
-2 -30 -40 0 -38 2 -40 30 -40 l30 0 0 -90 0 -90 40 0 40 0 0 90 0 90 34 0
c32 0 34 2 38 40 l4 40 -38 0 c-28 0 -38 4 -38 16 0 29 21 54 45 54 22 0 25 4
25 35 l0 35 -53 0 c-43 0 -58 -5 -75 -23z"/>
</g>
</svg>
