<?xml version="1.0" standalone="no"?>
<!DOCTYPE svg PUBLIC "-//W3C//DTD SVG 20010904//EN"
 "http://www.w3.org/TR/2001/REC-SVG-20010904/DTD/svg10.dtd">
<svg version="1.0" xmlns="http://www.w3.org/2000/svg"
 width="48.000000pt" height="48.000000pt" viewBox="0 0 48.000000 48.000000"
 preserveAspectRatio="xMidYMid meet">
<metadata>
Created by potrace 1.16, written by Peter Selinger 2001-2019
</metadata>
<g transform="translate(0.000000,48.000000) scale(0.100000,-0.100000)"
fill="#000000" stroke="none">
<path d="M259 411 c-17 -17 -29 -40 -29 -55 0 -20 -5 -26 -22 -26 -33 0 -119
43 -147 73 -13 15 -28 24 -32 21 -13 -7 -11 -82 2 -106 8 -15 8 -19 0 -14 -19
12 -13 -48 7 -70 10 -10 16 -26 14 -35 -2 -10 13 -30 33 -47 l37 -30 -33 -11
c-17 -6 -45 -11 -60 -11 -41 0 -36 -15 11 -34 62 -25 174 -21 235 8 85 39 154
138 155 220 0 28 7 45 25 62 29 27 33 46 8 37 -15 -5 -16 -3 -5 8 22 24 15 40
-13 27 -19 -8 -31 -8 -50 0 -48 22 -104 15 -136 -17z"/>
</g>
</svg>
